<svg width="16" height="16" viewBox="0 0 16 16" fill="none" xmlns="http://www.w3.org/2000/svg">
<path d="M8.5 1H7.5V3.48H8.5V1Z" fill="#121F24"/>
<path d="M12.597 2.69171L10.8433 4.44534L11.5504 5.15245L13.3041 3.39882L12.597 2.69171Z" fill="#121F24"/>
<path d="M15 7.5H12.52V8.5H15V7.5Z" fill="#121F24"/>
<path d="M11.5534 10.8446L10.8463 11.5517L12.5999 13.3054L13.307 12.5983L11.5534 10.8446Z" fill="#121F24"/>
<path d="M8.5 12.52H7.5V15H8.5V12.52Z" fill="#121F24"/>
<path d="M4.45197 10.8476L2.69834 12.6012L3.40545 13.3083L5.15907 11.5547L4.45197 10.8476Z" fill="#121F24"/>
<path d="M3.48 7.5H1V8.5H3.48V7.5Z" fill="#121F24"/>
<path d="M3.40253 2.69463L2.69542 3.40174L4.44905 5.15537L5.15615 4.44826L3.40253 2.69463Z" fill="#121F24"/>
<path d="M8 6C8.39556 6 8.78224 6.1173 9.11114 6.33706C9.44004 6.55682 9.69638 6.86918 9.84776 7.23463C9.99913 7.60009 10.0387 8.00222 9.96157 8.39018C9.8844 8.77814 9.69392 9.13451 9.41421 9.41421C9.13451 9.69392 8.77814 9.8844 8.39018 9.96157C8.00222 10.0387 7.60009 9.99913 7.23463 9.84776C6.86918 9.69638 6.55682 9.44004 6.33706 9.11114C6.1173 8.78224 6 8.39556 6 8C6 7.46957 6.21071 6.96086 6.58579 6.58579C6.96086 6.21071 7.46957 6 8 6ZM8 5C7.40666 5 6.82664 5.17595 6.33329 5.50559C5.83994 5.83524 5.45542 6.30377 5.22836 6.85195C5.0013 7.40013 4.94189 8.00333 5.05764 8.58527C5.1734 9.16721 5.45912 9.70176 5.87868 10.1213C6.29824 10.5409 6.83279 10.8266 7.41473 10.9424C7.99667 11.0581 8.59987 10.9987 9.14805 10.7716C9.69623 10.5446 10.1648 10.1601 10.4944 9.66671C10.8241 9.17336 11 8.59334 11 8C11 7.20435 10.6839 6.44129 10.1213 5.87868C9.55871 5.31607 8.79565 5 8 5Z" fill="#121F24"/>
</svg>
